<?xml version="1.0" encoding="utf-8"?>
<!-- Generator: Adobe Illustrator 16.2.0, SVG Export Plug-In . SVG Version: 6.00 Build 0)  -->
<!DOCTYPE svg PUBLIC "-//W3C//DTD SVG 1.1//EN" "http://www.w3.org/Graphics/SVG/1.1/DTD/svg11.dtd">
<svg version="1.1" id="Layer_1" xmlns="http://www.w3.org/2000/svg" xmlns:xlink="http://www.w3.org/1999/xlink" x="0px" y="0px"
	 width="16px" height="16px" viewBox="0 0 128 128" enable-background="new 0 0 128 128" xml:space="preserve">
<g>
	<linearGradient id="SVGID_1_" gradientUnits="userSpaceOnUse" x1="5.8193" y1="63.4111" x2="122.5693" y2="63.4111">
		<stop  offset="0" style="stop-color:#B9D0E6"/>
		<stop  offset="0.9946" style="stop-color:#7C9BBC"/>
	</linearGradient>
	<circle fill="url(#SVGID_1_)" cx="64.194" cy="63.411" r="58.375"/>
	<linearGradient id="SVGID_2_" gradientUnits="userSpaceOnUse" x1="1.3193" y1="64.4111" x2="127.0693" y2="64.4111">
		<stop  offset="0" style="stop-color:#6A8EBA"/>
		<stop  offset="1" style="stop-color:#48537D"/>
	</linearGradient>
	<circle fill="none" stroke="url(#SVGID_2_)" stroke-width="9" stroke-miterlimit="10" cx="64.194" cy="64.412" r="58.375"/>
	<linearGradient id="SVGID_3_" gradientUnits="userSpaceOnUse" x1="21" y1="64.25" x2="104.5" y2="64.25">
		<stop  offset="0" style="stop-color:#6A8EBA"/>
		<stop  offset="1" style="stop-color:#48537D"/>
	</linearGradient>
	<circle fill="url(#SVGID_3_)" cx="62.75" cy="64.25" r="41.75"/>
	<g>
		<g>
			<path fill="#FFFFFF" d="M38.545,77.908h8v8h-8V77.908z M46.545,45.908h8v8h-8V45.908z M46.545,53.908h8v8h-8V53.908z
				 M46.545,61.908h8v8h-8V61.908z M46.545,69.908h8v8h-8V69.908z M46.545,77.908h8v8h-8V77.908z"/>
			<path fill="#FFFFFF" d="M62.545,45.908h8v8h-8V45.908z M62.545,53.908h8v8h-8V53.908z M62.545,61.908h8v8h-8V61.908z
				 M62.545,77.908h8v8h-8V77.908z M70.545,45.908h8v8h-8V45.908z M70.545,61.908h8v8h-8V61.908z M70.545,77.908h8v8h-8V77.908z
				 M78.545,45.908h8v8h-8V45.908z M78.545,61.908h8v8h-8V61.908z M78.545,69.908h8v8h-8V69.908z M78.545,77.908h8v8h-8V77.908z"/>
		</g>
	</g>
</g>
</svg>
