<?xml version="1.0" encoding="utf-8"?>
<!-- Generator: Adobe Illustrator 16.2.0, SVG Export Plug-In . SVG Version: 6.00 Build 0)  -->
<!DOCTYPE svg PUBLIC "-//W3C//DTD SVG 1.1//EN" "http://www.w3.org/Graphics/SVG/1.1/DTD/svg11.dtd">
<svg version="1.1" id="Layer_1" xmlns="http://www.w3.org/2000/svg" xmlns:xlink="http://www.w3.org/1999/xlink" x="0px" y="0px"
	 width="16px" height="16px" viewBox="0 0 128 128" enable-background="new 0 0 128 128" xml:space="preserve">
<path fill="#383938" d="M133.7,66.825"/>
<linearGradient id="SVGID_1_" gradientUnits="userSpaceOnUse" x1="6.7012" y1="65.7676" x2="124.001" y2="65.7676">
	<stop  offset="0.0108" style="stop-color:#F5C36A"/>
	<stop  offset="1" style="stop-color:#C38441"/>
</linearGradient>
<path fill="url(#SVGID_1_)" d="M7.83,30.767c0,0-1.83,2.354-0.83,4.575v56.509c0,0,0.561,2.96,2.444,3.498
	s51.812,16.146,51.812,16.146s6.801,3.768,13.527,0.808l46.943-17.222c0,0,2.273-2.153,2.273-5.651V35.88
	c0,0,0.099-3.436-1.699-5.382L76.244,18.389c0,0-6.76-0.808-11.873,0.27L7.83,30.767z"/>
<polygon fill="#FEC872" points="10.813,33.188 66.963,46.106 119.469,33.968 72.166,18.121 9.198,31.978 "/>
<polygon fill="#B26B29" points="66.963,46.106 67.143,110.149 120.242,92.748 123.199,33.258 "/>
<linearGradient id="SVGID_2_" gradientUnits="userSpaceOnUse" x1="24" y1="63.5957" x2="107" y2="63.5957">
	<stop  offset="0" style="stop-color:#557599"/>
	<stop  offset="0.9946" style="stop-color:#2E344C"/>
</linearGradient>
<polygon fill="url(#SVGID_2_)" points="84.997,32.648 103.529,28.528 85.534,23.501 62.592,28.095 50.663,25.654 32.884,28.749 
	45.318,31.58 24,35.88 24,96.156 45,102.614 45,41.396 66.717,36.595 87,41.262 87,103.69 107,96.156 107,37.116 "/>
<linearGradient id="SVGID_3_" gradientUnits="userSpaceOnUse" x1="1" y1="65.7676" x2="128.0273" y2="65.7676">
	<stop  offset="0" style="stop-color:#818181"/>
	<stop  offset="1" style="stop-color:#333333"/>
</linearGradient>
<path fill="none" stroke="url(#SVGID_3_)" stroke-width="9" stroke-miterlimit="10" d="M7.08,28.614c0,0-1.58,2.354-1.58,4.574
	v58.662c0,0,1.311,2.96,3.195,3.498c1.883,0.538,52.186,16.146,52.186,16.146s6.988,3.768,13.715,0.808l46.787-17.222
	c0,0,2.117-2.153,2.117-5.651V35.88c0,0,0.348-3.436-1.449-5.382L76.119,18.389c0,0-7.072-0.808-12.185,0.27L7.08,28.614z"/>
</svg>
