<?xml version="1.0" encoding="utf-8"?>
<!-- Generator: Adobe Illustrator 16.2.0, SVG Export Plug-In . SVG Version: 6.00 Build 0)  -->
<!DOCTYPE svg PUBLIC "-//W3C//DTD SVG 1.1//EN" "http://www.w3.org/Graphics/SVG/1.1/DTD/svg11.dtd">
<svg version="1.1" id="Layer_1" xmlns="http://www.w3.org/2000/svg" xmlns:xlink="http://www.w3.org/1999/xlink" x="0px" y="0px"
	 width="16px" height="16px" viewBox="0 0 128 128" enable-background="new 0 0 128 128" xml:space="preserve">
<g>
	<path fill="#33394F" d="M10.426,16.197c0,0-10.426,24.303,10.51,94.745c0,0,47.004,7.592,82.285,0.227
		c0,0,16.045-53.445,15.517-84.791c0,0-13.704-5.358-57.187-5.358l-3.689-7.501C57.861,13.518,32.563,11.375,10.426,16.197z"/>
	
		<rect x="21.515" y="22.324" transform="matrix(0.9805 -0.1966 0.1966 0.9805 -9.8707 14.2273)" fill="#E6E6E5" stroke="#989898" stroke-width="7" stroke-miterlimit="10" width="90.402" height="69"/>
	<line fill="#E6E6E5" stroke="#4E4E4E" stroke-width="7" stroke-miterlimit="10" x1="92" y1="24.5" x2="102.5" y2="66.75"/>
	<line fill="#E6E6E5" stroke="#4E4E4E" stroke-width="7" stroke-miterlimit="10" x1="78" y1="27.5" x2="88.5" y2="69.75"/>
	<path fill="#E6E6E5" stroke="#4E4E4E" stroke-width="7" stroke-miterlimit="10" d="M72,30.5"/>
	<linearGradient id="SVGID_1_" gradientUnits="userSpaceOnUse" x1="40.1445" y1="54.3589" x2="97.4785" y2="92.3592">
		<stop  offset="0" style="stop-color:#E8B864"/>
		<stop  offset="0.9946" style="stop-color:#B26B29"/>
	</linearGradient>
	<path fill="url(#SVGID_1_)" d="M122.027,42.558C109.621,36.507,80,34.677,67,34.609v-0.068c0,0-1.359,0.012-3.505,0.069
		C61.356,34.621,60,34.651,60,34.651v0.068c-13,0.477-41.242,3.219-53.457,9.661c0,0-1.411,34.476,18.122,65.792
		c0,0,10.931,3.178,41.055,2.702c30.734-0.122,40.948-3.998,40.948-3.998C125.202,76.959,122.027,42.558,122.027,42.558z"/>
	<linearGradient id="SVGID_2_" gradientUnits="userSpaceOnUse" x1="1.7754" y1="75.7119" x2="126.5" y2="75.7119">
		<stop  offset="0" style="stop-color:#996B29"/>
		<stop  offset="1" style="stop-color:#774F1F"/>
	</linearGradient>
	<path fill="none" stroke="url(#SVGID_2_)" stroke-width="9" stroke-miterlimit="10" d="M121.777,44.558
		C109.371,38.507,79.5,36.677,66.5,36.609v-0.068c0,0-1.359,0.012-3.505,0.069c-2.139,0.011-3.495,0.041-3.495,0.041v0.068
		c-13,0.477-40.992,3.219-53.207,9.661c0,0-1.286,34.476,18.247,65.792c0,0,10.993,3.178,41.117,2.702
		c30.734-0.122,40.854-3.998,40.854-3.998C125.046,78.959,121.777,44.558,121.777,44.558z"/>
	<rect x="25" y="67" fill="#F3F3F3" width="18" height="18"/>
	<rect x="55" y="67" fill="#F3F3F3" width="18" height="18"/>
	<rect x="85" y="67" fill="#F3F3F3" width="18" height="18"/>
</g>
</svg>
