<?xml version="1.0" encoding="UTF-8" standalone="no"?>
<svg 
   x="0px"
   y="0px"
   width="16px"
   height="16px"
   viewBox="0 0 128 128"
   enable-background="new 0 0 128 128"><g
     id="g3822"><linearGradient
       id="SVGID_1_"
       gradientUnits="userSpaceOnUse"
       x1="23.1284"
       y1="62.7041"
       x2="98.2594"
       y2="62.7041"
       gradientTransform="matrix(1 -6.931364e-004 7.007582e-004 1.0109 -0.0662 0.0179)"><stop
         offset="0.0108"
         style="stop-color:#F5C36A"
         id="stop3825" /><stop
         offset="1"
         style="stop-color:#C38441"
         id="stop3827" /></linearGradient><path
       fill="url(#SVGID_1_)"
       d="M118.303,41.857l-16.327-14.505l-0.008-12.308c0,0-4.794-9.779-38.008-11.333   C30.748,5.312,25.968,15.097,25.968,15.097l0.008,12.308L10.369,41.932c-5.977,47.972,22.34,63.101,22.34,63.101   c-13.272,19.259,32.003,17.963,32.003,17.963s44.899,1.232,31.601-18.008C96.313,104.987,124.347,89.819,118.303,41.857z"
       id="path3829" /><linearGradient
       id="SVGID_2_"
       gradientUnits="userSpaceOnUse"
       x1="5.8335"
       y1="63.6797"
       x2="124.4463"
       y2="63.6797"
       gradientTransform="matrix(1 -6.931364e-004 7.007582e-004 1.0109 -0.0662 0.0179)"><stop
         offset="0"
         style="stop-color:#B5925F"
         id="stop3834" /><stop
         offset="0.9946"
         style="stop-color:#45453B"
         id="stop3836" /></linearGradient><path
       fill="none"
       stroke="url(#SVGID_2_)"
       stroke-width="9"
       stroke-miterlimit="10"
       d="M119.054,42.844l-17.577-14.505   l-0.008-12.307c0,0-4.795-9.779-38.008-11.333C30.249,6.299,25.469,16.084,25.469,16.084l0.008,12.307L11.119,42.918   c-5.977,47.973,22.966,63.1,22.966,63.1C20.813,125.276,66.4,123.982,66.4,123.982s44.432,1.23,31.132-18.009   C97.532,105.974,125.097,90.807,119.054,42.844z"
       id="path3838" /><linearGradient
       id="SVGID_3_"
       gradientUnits="userSpaceOnUse"
       x1="104.1934"
       y1="14.6362"
       x2="104.1934"
       y2="14.6362"
       gradientTransform="matrix(1 -6.931364e-004 7.007582e-004 1.0109 -0.0662 0.0179)"><stop
         offset="0"
         style="stop-color:#B0B1A9"
         id="stop3841" /><stop
         offset="1"
         style="stop-color:#6A6A5C"
         id="stop3843" /></linearGradient><path
       fill="url(#SVGID_3_)"
       d="M104.138,14.742"
       id="path3845" /><ellipse
       transform="matrix(1 -6.946295e-004 6.946295e-004 1 -0.0115 0.0445)"
       fill="#CACACA"
       cx="64.091"
       cy="16.508"
       rx="39.365"
       ry="10.11"
       id="ellipse3847" /><path
       fill="#C59C6D"
       d="M64.104,31.39C34.354,31.164,21.1,25.786,21.1,25.786s-0.367-8.35-0.049-10.655   c0.79-2.016,1.748-2.716,1.748-2.716c0.569-1.162,7.356-10.441,41.367-12.081l0.772,0.04l1.436-0.042   c34.014,1.593,36.591,10.724,38.343,12.286l1.417,2.414l-0.159,10.695C96.644,29.682,64.104,31.39,64.104,31.39z M96.864,14.832   c-1.98-1.69-8.066-6.535-33.027-7.998c-20.749,1.125-28.132,4.125-33.744,8.29C30.093,15.125,58.538,24.706,96.864,14.832z"
       id="path3849" /><linearGradient
       id="SVGID_4_"
       gradientUnits="userSpaceOnUse"
       x1="5.8335"
       y1="63.6797"
       x2="124.4463"
       y2="63.6797"
       gradientTransform="matrix(1 -6.931364e-004 7.007582e-004 1.0109 -0.0662 0.0179)"><stop
         offset="0.0054"
         style="stop-color:#996B29"
         id="stop3852" /><stop
         offset="1"
         style="stop-color:#774F1F"
         id="stop3854" /></linearGradient><path
       fill="none"
       stroke="url(#SVGID_4_)"
       stroke-width="9"
       stroke-miterlimit="10"
       d="M119.054,42.844l-17.577-14.505   l-0.008-12.307c0,0-4.795-9.779-38.008-11.333C30.249,6.299,25.469,16.084,25.469,16.084l0.008,12.307L11.119,42.918   c-5.977,47.973,22.966,63.1,22.966,63.1C20.813,125.276,66.4,123.982,66.4,123.982s44.432,1.23,31.132-18.009   C97.532,105.974,125.097,90.807,119.054,42.844z"
       id="path3856" /><ellipse
       transform="matrix(1 -6.946295e-004 6.946295e-004 1 -0.0115 0.0445)"
       fill="#B4B4B4"
       cx="64.091"
       cy="16.508"
       rx="39.365"
       ry="10.11"
       id="ellipse3858" /><linearGradient
       id="SVGID_5_"
       gradientUnits="userSpaceOnUse"
       x1="-0.8398"
       y1="-37.7534"
       x2="75.7586"
       y2="29.9868"
       gradientTransform="matrix(1 -6.931364e-004 7.007582e-004 1.0109 -0.0662 0.0179)"><stop
         offset="0"
         style="stop-color:#989898"
         id="stop3861" /><stop
         offset="1"
         style="stop-color:#1A1A1A"
         id="stop3863" /></linearGradient><path
       fill="url(#SVGID_5_)"
       d="M64.104,31.39C34.354,31.164,21.1,25.786,21.1,25.786s-0.367-8.35-0.049-10.655   c0.79-2.016,1.748-2.716,1.748-2.716c0.569-1.162,7.356-10.441,41.367-12.081l0.772,0.04l1.436-0.042   c34.014,1.593,36.591,10.724,38.343,12.286l1.417,2.414l-0.159,10.695C96.644,29.682,64.104,31.39,64.104,31.39z M96.864,14.832   c-1.98-1.69-8.066-6.535-33.027-7.998c-20.749,1.125-28.132,4.125-33.744,8.29C30.093,15.125,58.538,24.706,96.864,14.832z"
       id="path3865" /><g
       id="g3867"><g
         id="g3869"><path
           fill="#FFFFFF"
           d="M20.056,79.232l8.125-0.004l0.005,8.125l-8.125,0.004L20.056,79.232z M28.159,46.728l8.125-0.005     l0.005,8.125l-8.125,0.005L28.159,46.728z M28.164,54.853l8.125-0.005l0.006,8.125l-8.125,0.005L28.164,54.853z M28.17,62.978     l8.125-0.005l0.005,8.125l-8.125,0.006L28.17,62.978z M28.175,71.104l8.125-0.006l0.006,8.125l-8.125,0.006L28.175,71.104z      M28.181,79.229l8.125-0.006l0.005,8.125l-8.125,0.006L28.181,79.229z"
           id="path3871" /><path
           fill="#FFFFFF"
           d="M48.958,46.713l8.125-0.006l0.005,8.125l-8.125,0.006L48.958,46.713z M48.964,54.838l8.125-0.006     l0.006,8.125l-8.125,0.006L48.964,54.838z M48.97,62.963l8.125-0.006l0.005,8.125l-8.125,0.006L48.97,62.963z M48.975,71.088     l8.125-0.006l0.006,8.125l-8.125,0.006L48.975,71.088z M48.981,79.213l8.125-0.006l0.005,8.125l-8.125,0.006L48.981,79.213z      M57.083,46.708l8.125-0.006l0.006,8.125l-8.126,0.006L57.083,46.708z M57.095,62.958l8.124-0.006l0.006,8.125L57.1,71.082     L57.095,62.958z M65.209,46.702l8.123-0.005l0.006,8.125l-8.123,0.005L65.209,46.702z M65.215,54.827l8.123-0.005l0.006,8.125     l-8.125,0.005L65.215,54.827z M65.219,62.952l8.125-0.005l0.006,8.124l-8.125,0.006L65.219,62.952z M65.225,71.076l8.125-0.006     l0.006,8.125l-8.125,0.006L65.225,71.076z M65.23,79.201l8.125-0.006l0.006,8.125l-8.125,0.006L65.23,79.201z"
           id="path3873" /><path
           fill="#FFFFFF"
           d="M85.359,46.688l8.125-0.006l0.006,8.125l-8.125,0.006L85.359,46.688z M85.365,54.813l8.125-0.006     l0.006,8.125l-8.125,0.006L85.365,54.813z M85.371,62.938l8.125-0.006l0.006,8.125l-8.125,0.006L85.371,62.938z M85.377,71.063     l8.125-0.006l0.004,8.125l-8.125,0.006L85.377,71.063z M85.381,79.188l8.125-0.006l0.006,8.125l-8.125,0.006L85.381,79.188z      M93.484,46.682l8.125-0.005l0.006,8.125l-8.125,0.005L93.484,46.682z M93.496,62.932l8.125-0.005l0.006,8.124l-8.125,0.006     L93.496,62.932z M101.609,46.677l8.125-0.006l0.006,8.125l-8.125,0.006L101.609,46.677z M101.615,54.802l8.125-0.006l0.006,8.125     l-8.125,0.006L101.615,54.802z M101.627,71.051l8.125-0.004l0.004,8.125l-8.125,0.004L101.627,71.051z M101.631,79.176     l8.125-0.004l0.006,8.125l-8.125,0.004L101.631,79.176z"
           id="path3875" /></g></g></g><g
     id="g3877" /><g
     id="g3879" /><g
     id="g3881" /><g
     id="g3883" /><g
     id="g3885" /><g
     id="g3887" /></svg>
